<svg xmlns="http://www.w3.org/2000/svg" version="1.1" xmlns:xlink="http://www.w3.org/1999/xlink" xmlns:svgjs="http://svgjs.dev/svgjs" width="1440" height="560" preserveAspectRatio="none" viewBox="0 0 1440 560"><g mask="url(&quot;#SvgjsMask2454&quot;)" fill="none"><rect width="1440" height="560" x="0" y="0" fill="url(&quot;#SvgjsRadialGradient2455&quot;)"></rect><path d="M1440 0L956.38 0L1440 204.17z" fill="rgba(255, 255, 255, .1)"></path><path d="M956.38 0L1440 204.17L1440 322.94L718.1800000000001 0z" fill="rgba(255, 255, 255, .075)"></path><path d="M718.1800000000001 0L1440 322.94L1440 403.02L483.4800000000001 0z" fill="rgba(255, 255, 255, .05)"></path><path d="M483.48 0L1440 403.02L1440 454.5L331.24 0z" fill="rgba(255, 255, 255, .025)"></path><path d="M0 560L108.36 560L0 371.36z" fill="rgba(0, 0, 0, .1)"></path><path d="M0 371.36L108.36 560L240.24 560L0 196.34z" fill="rgba(0, 0, 0, .075)"></path><path d="M0 196.34000000000003L240.24 560L340.64 560L0 160.97000000000003z" fill="rgba(0, 0, 0, .05)"></path><path d="M0 160.97000000000003L340.64 560L1067.4 560L0 86.12000000000003z" fill="rgba(0, 0, 0, .025)"></path></g><defs><mask id="SvgjsMask2454"><rect width="1440" height="560" fill="#ffffff"></rect></mask><radialGradient cx="50%" cy="50%" r="772.53" gradientUnits="userSpaceOnUse" id="SvgjsRadialGradient2455"><stop stop-color="#0e2a47" offset="0"></stop><stop stop-color="rgba(53, 164, 131, 1)" offset="1"></stop></radialGradient></defs></svg>